<?xml version="1.0" encoding="utf-8"?>
<!-- Generator: Adobe Illustrator 28.2.0, SVG Export Plug-In . SVG Version: 6.00 Build 0)  -->
<svg version="1.1" id="Capa_1" xmlns="http://www.w3.org/2000/svg" xmlns:xlink="http://www.w3.org/1999/xlink" x="0px" y="0px"
	 viewBox="0 0 512 512" style="enable-background:new 0 0 512 512;" xml:space="preserve">
<style type="text/css">
	.st0{fill:#C7A386;}
</style>
<g>
	<g>
		<path class="st0" d="M165.7,286.4c14.6-0.5,14.6-21.5,0-22h-29.1c-6.1,0-11,4.9-11,11v71.7c0.5,14.6,21.5,14.6,22,0v-25.5h15.8
			c14.6-0.5,14.6-21.5,0-22h-15.8v-13.2H165.7z"/>
		<path class="st0" d="M308.4,286.5c14.6-0.5,14.6-21.5,0-22h-30.2c-6.1,0-11,4.9-11,11v71.6c0,6.1,4.9,11,11,11h30.2
			c14.6-0.5,14.6-21.5,0-22h-19.2v-13.8h16.9c14.6-0.5,14.6-21.5,0-22h-16.9v-13.8H308.4z"/>
		<path class="st0" d="M375.4,336.1h-19.2v-13.8h16.9c14.6-0.5,14.6-21.5,0-22h-16.9v-13.8h19.2c14.6-0.5,14.6-21.5,0-22h-30.2
			c-6.1,0-11,4.9-11,11v71.6c0,6.1,4.9,11,11,11h30.2C390,357.5,390,336.6,375.4,336.1z"/>
		<path class="st0" d="M252.5,293.6c0-16.4-13.8-29.8-30.8-29.8h-19.2c-6.1,0-11,4.9-11,11v72.2c0.5,14.6,21.5,14.6,22,0v-15.2
			l19.8,22.5c4,4.6,11,5,15.5,1c4.6-4,5-11,1-15.5l-16.4-18.6C244.6,316.7,252.5,306,252.5,293.6z M221.7,285.8
			c11.7,0.6,11.7,15,0,15.5c-1.9,0-5,0-8.1,0c0-6.7,0-8.7,0-15.6H221.7z"/>
		<path class="st0" d="M194.3,175.4c14.6-0.5,14.6-21.5,0-22h-48.9c-14.6,0.5-14.6,21.5,0,22h13.4v57.4c0.5,14.6,21.5,14.6,22,0
			v-57.4H194.3z"/>
		<path class="st0" d="M271.8,229l-25.3-67.5c0-0.1-0.1-0.2-0.1-0.3c-2-4.7-6.5-7.8-11.6-7.8c-5.1,0-9.7,3.1-11.6,7.8
			c0,0.1-0.1,0.2-0.1,0.3L197.4,229c-2.1,5.7,0.7,12,6.4,14.2c5.5,2.1,12-0.7,14.2-6.4l2.9-7.6h27.5l2.8,7.5
			c2.1,5.7,8.5,8.6,14.2,6.4C271.1,241,273.9,234.7,271.8,229z M229.2,207.2l5.5-14.5l5.4,14.5H229.2z"/>
		<path class="st0" d="M346.8,241.8c4.9-3.5,6.1-10.4,2.6-15.3l-19.9-27.8l19.9-27.8c3.5-4.9,2.4-11.8-2.6-15.3
			c-4.9-3.5-11.8-2.4-15.3,2.6L316,179.7L300.5,158c-3.5-4.9-10.4-6.1-15.3-2.6c-4.9,3.5-6.1,10.4-2.6,15.3l19.9,27.8l-19.9,27.8
			c-3.5,4.9-2.4,11.8,2.6,15.3c4.9,3.5,11.8,2.4,15.3-2.6l15.5-21.7l15.5,21.7C335,244.2,341.9,245.3,346.8,241.8z"/>
	</g>
	<path class="st0" d="M256,463.8c-114.7,0-208-93.3-208-208c10.5-275.6,405.6-275.5,416,0C464,370.4,370.7,463.8,256,463.8z
		 M256,69.7c-102.6,0-186,83.4-186,186c9.4,246.4,362.7,246.4,372,0C442,153.2,358.6,69.7,256,69.7z"/>
	<path class="st0" d="M256,511.8C29.2,512.2-85.7,234.8,74.9,74.7c95.3-99.3,266.8-99.3,362.1,0C597.7,234.8,482.8,512.2,256,511.8z
		 M256,21.7c-129.1,0-234,105-234,234c11.8,310.1,456.4,310,468.1,0C490,126.7,385.1,21.7,256,21.7z"/>
</g>
</svg>
